<?xml version="1.0" encoding="utf-8" standalone="no"?>
<!DOCTYPE svg PUBLIC "-//W3C//DTD SVG 1.1//EN"
  "http://www.w3.org/Graphics/SVG/1.1/DTD/svg11.dtd">
<svg xmlns:xlink="http://www.w3.org/1999/xlink" width="460.8pt" height="236.16pt" viewBox="0 0 460.8 236.16" xmlns="http://www.w3.org/2000/svg" version="1.1">
 <metadata>
  <rdf:RDF xmlns:dc="http://purl.org/dc/elements/1.1/" xmlns:cc="http://creativecommons.org/ns#" xmlns:rdf="http://www.w3.org/1999/02/22-rdf-syntax-ns#">
   <cc:Work>
    <dc:type rdf:resource="http://purl.org/dc/dcmitype/StillImage"/>
    <dc:date>2024-08-01T15:30:02.414518</dc:date>
    <dc:format>image/svg+xml</dc:format>
    <dc:creator>
     <cc:Agent>
      <dc:title>Matplotlib v3.8.4, https://matplotlib.org/</dc:title>
     </cc:Agent>
    </dc:creator>
   </cc:Work>
  </rdf:RDF>
 </metadata>
 <defs>
  <style type="text/css">*{stroke-linejoin: round; stroke-linecap: butt}</style>
 </defs>
 <g id="figure_1">
  <g id="patch_1">
   <path d="M 0 236.16 
L 460.8 236.16 
L 460.8 0 
L 0 0 
z
" style="fill: #ffffff"/>
  </g>
  <g id="axes_1">
   <g id="line2d_1">
    <path d="M 230.4 57.681808 
L 230.4 65.689374 
L 226.341999 65.789316 
L 226.514139 66.595323 
L 226.99548 67.354986 
L 227.747721 68.027169 
L 228.711005 68.577691 
L 229.808684 68.982057 
L 231.329671 69.273433 
L 232.719831 69.288092 
L 233.783532 69.0695 
L 234.27465 68.797427 
L 234.457459 68.477561 
L 234.317414 68.154662 
L 233.865658 67.873732 
L 233.138138 67.676432 
L 231.841804 67.602649 
L 230.342573 67.794596 
L 229.211672 68.125594 
L 228.175327 68.610286 
L 227.316 69.229414 
L 226.702069 69.95302 
L 226.382385 70.742835 
L 226.382385 71.555321 
L 226.702069 72.345136 
L 227.316 73.068742 
L 228.175327 73.687869 
L 229.211672 74.172562 
L 230.72508 74.578155 
L 232.192742 74.700385 
L 233.408119 74.56758 
L 234.20018 74.24396 
L 234.446629 73.930143 
L 234.371086 73.604206 
L 233.979561 73.311393 
L 233.303208 73.094309 
L 232.054108 72.984654 
L 230.572234 73.134591 
L 229.066123 73.568548 
L 228.04886 74.072531 
L 227.218678 74.707529 
L 226.641637 75.442322 
L 226.363651 76.237751 
L 226.40684 77.049832 
L 226.767767 77.833253 
L 227.417713 78.544987 
L 228.304961 79.147708 
L 229.358913 79.612766 
L 230.877463 79.989878 
L 232.328822 80.084688 
L 233.508748 79.929383 
L 234.251194 79.591349 
L 234.455293 79.2733 
L 234.336709 78.949186 
L 233.904878 78.664107 
L 233.194162 78.460053 
L 231.913119 78.374165 
L 230.419143 78.552054 
L 228.922472 79.014218 
L 227.92574 79.53712 
L 227.125887 80.187429 
L 226.586556 80.932709 
L 226.350664 81.732966 
L 226.43698 82.543829 
L 226.838636 83.320088 
L 227.523672 84.019282 
L 228.437579 84.605083 
L 229.507637 85.050189 
L 231.029167 85.398745 
L 232.462157 85.466461 
L 233.604949 85.289337 
L 234.296726 84.93783 
L 234.458182 84.616347 
L 234.296726 84.294865 
L 233.825205 84.018271 
L 233.081138 83.827882 
L 231.769976 83.766344 
L 230.266024 83.972395 
L 229.138673 84.313999 
L 228.111686 84.808381 
L 227.266781 85.435512 
L 226.671189 86.164799 
L 226.372301 86.957519 
L 226.393899 87.769903 
L 226.734265 88.556618 
L 227.366316 89.274373 
L 228.239759 89.885363 
L 229.285094 90.360279 
L 230.801343 90.751644 
L 232.261113 90.860126 
L 233.458978 90.715988 
L 234.226368 90.385044 
L 234.451682 90.069011 
L 234.354601 89.743885 
L 233.94285 89.454844 
L 233.249192 89.244194 
L 231.983896 89.146348 
L 230.495705 89.310232 
L 228.994047 89.758315 
L 227.98687 90.271806 
L 227.171708 90.914531 
L 226.613423 91.654656 
L 226.356438 92.452597 
L 226.421202 93.264171 
L 226.802561 94.044106 
L 227.470171 94.749653 
L 228.370909 95.343977 
L 229.433103 95.799096 
L 230.953414 96.161937 
L 232.395845 96.243157 
L 233.557411 96.076856 
L 234.27465 95.731966 
L 234.457459 95.4121 
L 234.317414 95.089201 
L 233.865658 94.808271 
L 233.138138 94.610971 
L 231.841804 94.537188 
L 230.342573 94.729135 
L 229.211672 95.060133 
L 228.175327 95.544825 
L 227.316 96.163953 
L 226.702069 96.887559 
L 226.382385 97.677374 
L 226.382385 98.48986 
L 226.702069 99.279675 
L 227.316 100.003281 
L 228.175327 100.622408 
L 229.211672 101.107101 
L 230.72508 101.512694 
L 232.192742 101.634924 
L 233.408119 101.502119 
L 234.20018 101.178499 
L 234.446629 100.864682 
L 234.371086 100.538745 
L 233.979561 100.245931 
L 233.303208 100.028848 
L 232.054108 99.919193 
L 230.572234 100.069129 
L 229.066123 100.503087 
L 228.04886 101.00707 
L 227.218678 101.642068 
L 226.641637 102.376861 
L 226.363651 103.17229 
L 226.40684 103.984371 
L 226.767767 104.767792 
L 227.417713 105.479526 
L 228.304961 106.082247 
L 229.358913 106.547305 
L 230.877463 106.924417 
L 232.328822 107.019227 
L 233.508748 106.863922 
L 234.251194 106.525888 
L 234.455293 106.207839 
L 234.336709 105.883725 
L 233.904878 105.598646 
L 233.194162 105.394592 
L 231.913119 105.308704 
L 230.419143 105.486593 
L 228.922472 105.948757 
L 227.92574 106.471659 
L 227.125887 107.121968 
L 226.586556 107.867248 
L 226.350664 108.667505 
L 226.43698 109.478368 
L 226.838636 110.254627 
L 227.523672 110.953821 
L 228.437579 111.539622 
L 229.507637 111.984728 
L 231.029167 112.333284 
L 232.462157 112.401 
L 233.604949 112.223876 
L 234.296726 111.872369 
L 234.458182 111.550886 
L 234.296726 111.229404 
L 233.825205 110.95281 
L 233.081138 110.762421 
L 231.769976 110.700883 
L 230.266024 110.906934 
L 229.138673 111.248538 
L 228.111686 111.74292 
L 227.266781 112.370051 
L 226.671189 113.099338 
L 226.372301 113.892058 
L 226.393899 114.704442 
L 226.734265 115.491157 
L 227.366316 116.208912 
L 228.239759 116.819902 
L 229.285094 117.294818 
L 230.801343 117.686183 
L 232.261113 117.794665 
L 233.458978 117.650527 
L 234.226368 117.319583 
L 234.451682 117.00355 
L 234.354601 116.678424 
L 233.94285 116.389383 
L 233.249192 116.178733 
L 231.983896 116.080887 
L 230.495705 116.244771 
L 228.994047 116.692854 
L 227.98687 117.206345 
L 227.171708 117.849069 
L 226.613423 118.589195 
L 226.356438 119.387136 
L 226.421202 120.19871 
L 226.802561 120.978645 
L 227.470171 121.684192 
L 228.370909 122.278516 
L 229.433103 122.733635 
L 230.953414 123.096476 
L 232.395845 123.177696 
L 233.557411 123.011395 
L 234.27465 122.666505 
L 234.457459 122.346639 
L 234.317414 122.02374 
L 233.865658 121.74281 
L 233.138138 121.54551 
L 231.841804 121.471727 
L 230.342573 121.663673 
L 229.211672 121.994672 
L 228.175327 122.479364 
L 227.316 123.098492 
L 226.702069 123.822098 
L 226.382385 124.611913 
L 226.382385 125.424399 
L 226.702069 126.214214 
L 227.316 126.93782 
L 228.175327 127.556947 
L 229.211672 128.04164 
L 230.72508 128.447233 
L 232.192742 128.569463 
L 233.408119 128.436658 
L 234.20018 128.113038 
L 234.446629 127.799221 
L 234.371086 127.473284 
L 233.979561 127.18047 
L 233.303208 126.963387 
L 232.054108 126.853732 
L 230.572234 127.003668 
L 229.066123 127.437626 
L 228.04886 127.941609 
L 227.218678 128.576607 
L 226.641637 129.3114 
L 226.363651 130.106829 
L 226.341999 130.377918 
L 230.4 130.558744 
L 230.4 138.485425 
L 230.4 138.485425 
" clip-path="url(#p26e08cdf38)" style="fill: none; stroke: #1f77b4; stroke-width: 1.5; stroke-linecap: square"/>
   </g>
   <g id="PolyCollection_1">
    <defs>
     <path id="mcf48fa805d" d="M 27.490909 -218.88 
L 27.490909 -178.478192 
L 433.309091 -178.478192 
L 433.309091 -218.88 
L 433.309091 -218.88 
L 27.490909 -218.88 
z
" style="stroke: #808080; stroke-opacity: 0.5"/>
    </defs>
    <g clip-path="url(#p26e08cdf38)">
     <use xlink:href="#mcf48fa805d" x="0" y="236.16" style="fill: #808080; fill-opacity: 0.5; stroke: #808080; stroke-opacity: 0.5"/>
    </g>
   </g>
   <g id="patch_2">
    <path d="M 222.283636 146.565787 
L 238.516364 146.565787 
L 238.516364 130.405064 
L 222.283636 130.405064 
z
" clip-path="url(#p26e08cdf38)" style="stroke: #000000; stroke-linejoin: miter"/>
   </g>
   <g id="patch_3">
    <path d="M 210.109091 141.600863 
Q 210.109091 178.887871 210.109091 216.174879 
" clip-path="url(#p26e08cdf38)" style="fill: none; stroke: #000000; stroke-linecap: round"/>
    <path d="M 206.109091 149.600863 
L 210.109091 141.600863 
L 214.109091 149.600863 
" clip-path="url(#p26e08cdf38)" style="fill: none; stroke: #000000; stroke-linecap: round"/>
    <path d="M 214.109091 208.174879 
L 210.109091 216.174879 
L 206.109091 208.174879 
" clip-path="url(#p26e08cdf38)" style="fill: none; stroke: #000000; stroke-linecap: round"/>
   </g>
   <g id="line2d_2">
    <path d="M 27.490909 57.681808 
L 433.309091 57.681808 
" clip-path="url(#p26e08cdf38)" style="fill: none; stroke: #000000; stroke-width: 1.5; stroke-linecap: square"/>
   </g>
   <g id="text_1">
    <!-- $y$ -->
    <g transform="translate(196.363636 182.174109) scale(0.12 -0.12)">
     <defs>
      <path id="DejaVuSans-Oblique-79" d="M 1588 -325 
Q 1188 -997 936 -1164 
Q 684 -1331 294 -1331 
L -159 -1331 
L -63 -850 
L 269 -850 
Q 509 -850 678 -719 
Q 847 -588 1056 -206 
L 1234 128 
L 459 3500 
L 1069 3500 
L 1650 819 
L 3256 3500 
L 3859 3500 
L 1588 -325 
z
" transform="scale(0.015625)"/>
     </defs>
     <use xlink:href="#DejaVuSans-Oblique-79" transform="translate(0 0.3125)"/>
    </g>
   </g>
   <g id="text_2">
    <!-- $m$ -->
    <g transform="translate(254.956364 141.796675) scale(0.12 -0.12)">
     <defs>
      <path id="DejaVuSans-Oblique-6d" d="M 5747 2113 
L 5338 0 
L 4763 0 
L 5166 2094 
Q 5191 2228 5203 2325 
Q 5216 2422 5216 2491 
Q 5216 2772 5059 2928 
Q 4903 3084 4622 3084 
Q 4203 3084 3875 2770 
Q 3547 2456 3450 1953 
L 3066 0 
L 2491 0 
L 2900 2094 
Q 2925 2209 2937 2307 
Q 2950 2406 2950 2484 
Q 2950 2769 2794 2926 
Q 2638 3084 2363 3084 
Q 1938 3084 1609 2770 
Q 1281 2456 1184 1953 
L 800 0 
L 225 0 
L 909 3500 
L 1484 3500 
L 1375 2956 
Q 1609 3263 1923 3423 
Q 2238 3584 2597 3584 
Q 2978 3584 3223 3384 
Q 3469 3184 3519 2828 
Q 3781 3197 4126 3390 
Q 4472 3584 4856 3584 
Q 5306 3584 5551 3325 
Q 5797 3066 5797 2591 
Q 5797 2488 5784 2364 
Q 5772 2241 5747 2113 
z
" transform="scale(0.015625)"/>
     </defs>
     <use xlink:href="#DejaVuSans-Oblique-6d"/>
    </g>
   </g>
  </g>
 </g>
 <defs>
  <clipPath id="p26e08cdf38">
   <rect x="7.2" y="7.2" width="446.4" height="221.76"/>
  </clipPath>
 </defs>
</svg>
