<?xml version="1.0" encoding="utf-8" standalone="no"?>
<!DOCTYPE svg PUBLIC "-//W3C//DTD SVG 1.1//EN"
  "http://www.w3.org/Graphics/SVG/1.1/DTD/svg11.dtd">
<svg xmlns:xlink="http://www.w3.org/1999/xlink" width="460.8pt" height="345.6pt" viewBox="0 0 460.8 345.6" xmlns="http://www.w3.org/2000/svg" version="1.1">
 <metadata>
  <rdf:RDF xmlns:dc="http://purl.org/dc/elements/1.1/" xmlns:cc="http://creativecommons.org/ns#" xmlns:rdf="http://www.w3.org/1999/02/22-rdf-syntax-ns#">
   <cc:Work>
    <dc:type rdf:resource="http://purl.org/dc/dcmitype/StillImage"/>
    <dc:date>2024-08-16T14:16:54.816866</dc:date>
    <dc:format>image/svg+xml</dc:format>
    <dc:creator>
     <cc:Agent>
      <dc:title>Matplotlib v3.8.4, https://matplotlib.org/</dc:title>
     </cc:Agent>
    </dc:creator>
   </cc:Work>
  </rdf:RDF>
 </metadata>
 <defs>
  <style type="text/css">*{stroke-linejoin: round; stroke-linecap: butt}</style>
 </defs>
 <g id="figure_1">
  <g id="patch_1">
   <path d="M 0 345.6 
L 460.8 345.6 
L 460.8 0 
L 0 0 
z
" style="fill: #ffffff"/>
  </g>
  <g id="axes_1">
   <g id="patch_2">
    <path d="M 57.6 307.584 
L 414.72 307.584 
L 414.72 41.472 
L 57.6 41.472 
z
" style="fill: #ffffff"/>
   </g>
   <g id="PolyCollection_1">
    <path d="M 73.832727 53.568 
L 73.832727 57.656826 
L 74.646398 57.69116 
L 75.460068 57.725942 
L 76.273739 57.761182 
L 77.087409 57.796888 
L 77.90108 57.833067 
L 78.714751 57.869729 
L 79.528421 57.906882 
L 80.342092 57.944535 
L 81.155762 57.982698 
L 81.969433 58.021381 
L 82.783103 58.060592 
L 83.596774 58.100343 
L 84.410444 58.140643 
L 85.224115 58.181502 
L 86.037785 58.222932 
L 86.851456 58.264943 
L 87.665126 58.307546 
L 88.478797 58.350754 
L 89.292468 58.394578 
L 90.106138 58.43903 
L 90.919809 58.484123 
L 91.733479 58.529869 
L 92.54715 58.576281 
L 93.36082 58.623373 
L 94.174491 58.671159 
L 94.988161 58.719652 
L 95.801832 58.768868 
L 96.615502 58.81882 
L 97.429173 58.869525 
L 98.242843 58.920998 
L 99.056514 58.973255 
L 99.870185 59.026312 
L 100.683855 59.080187 
L 101.497526 59.134897 
L 102.311196 59.19046 
L 103.124867 59.246893 
L 103.938537 59.304217 
L 104.752208 59.362451 
L 105.565878 59.421614 
L 106.379549 59.481727 
L 107.193219 59.542812 
L 108.00689 59.604889 
L 108.82056 59.667982 
L 109.634231 59.732112 
L 110.447902 59.797305 
L 111.261572 59.863584 
L 112.075243 59.930975 
L 112.888913 59.999503 
L 113.702584 60.069194 
L 114.516254 60.140077 
L 115.329925 60.212179 
L 116.143595 60.285529 
L 116.957266 60.360158 
L 117.770936 60.436096 
L 118.584607 60.513376 
L 119.398278 60.592029 
L 120.211948 60.67209 
L 121.025619 60.753594 
L 121.839289 60.836577 
L 122.65296 60.921076 
L 123.46663 61.007129 
L 124.280301 61.094776 
L 125.093971 61.184059 
L 125.907642 61.275019 
L 126.721312 61.3677 
L 127.534983 61.462147 
L 128.348653 61.558407 
L 129.162324 61.656528 
L 129.975995 61.75656 
L 130.789665 61.858556 
L 131.603336 61.962567 
L 132.417006 62.06865 
L 133.230677 62.176861 
L 134.044347 62.28726 
L 134.858018 62.399909 
L 135.671688 62.51487 
L 136.485359 62.632209 
L 137.299029 62.751996 
L 138.1127 62.8743 
L 138.92637 62.999195 
L 139.740041 63.126758 
L 140.553712 63.257066 
L 141.367382 63.390202 
L 142.181053 63.526251 
L 142.994723 63.665301 
L 143.808394 63.807444 
L 144.622064 63.952775 
L 145.435735 64.101394 
L 146.249405 64.253402 
L 147.063076 64.408908 
L 147.876746 64.568023 
L 148.690417 64.730862 
L 149.504087 64.897547 
L 150.317758 65.068202 
L 151.131429 65.242958 
L 151.945099 65.421952 
L 152.75877 65.605326 
L 153.57244 65.793227 
L 154.386111 65.985811 
L 155.199781 66.183237 
L 156.013452 66.385675 
L 156.827122 66.593299 
L 157.640793 66.806293 
L 158.454463 67.024848 
L 159.268134 67.249164 
L 160.081805 67.47945 
L 160.895475 67.715925 
L 161.709146 67.958817 
L 162.522816 68.208366 
L 163.336487 68.464822 
L 164.150157 68.728448 
L 164.963828 68.999518 
L 165.777498 69.278321 
L 166.591169 69.565158 
L 167.404839 69.860347 
L 168.21851 70.164219 
L 169.03218 70.477124 
L 169.845851 70.799429 
L 170.659522 71.131518 
L 171.473192 71.473795 
L 172.286863 71.826686 
L 173.100533 72.190639 
L 173.914204 72.566123 
L 174.727874 72.953634 
L 175.541545 73.353694 
L 176.355215 73.766851 
L 177.168886 74.193686 
L 177.982556 74.634808 
L 178.796227 75.090861 
L 179.609897 75.562524 
L 180.423568 76.050513 
L 181.237239 76.555585 
L 182.050909 77.078539 
L 182.86458 77.620219 
L 183.67825 78.181518 
L 184.491921 78.763378 
L 185.305591 79.366796 
L 186.119262 79.992828 
L 186.932932 80.642589 
L 187.746603 81.317261 
L 188.560273 82.018094 
L 189.373944 82.746411 
L 190.187614 83.503615 
L 191.001285 84.291189 
L 191.814956 85.110705 
L 192.628626 85.963827 
L 193.442297 86.852319 
L 194.255967 87.778045 
L 195.069638 88.742983 
L 195.883308 89.749222 
L 196.696979 90.798975 
L 197.510649 91.89458 
L 198.32432 93.038508 
L 199.13799 94.233369 
L 199.951661 95.481915 
L 200.765332 96.787046 
L 201.579002 98.151815 
L 202.392673 99.579427 
L 203.206343 101.073242 
L 204.020014 102.636777 
L 204.833684 104.273698 
L 205.647355 105.987818 
L 206.461025 107.783085 
L 207.274696 109.663569 
L 208.088366 111.63344 
L 208.902037 113.696945 
L 209.715707 115.858367 
L 210.529378 118.121987 
L 211.343049 120.49202 
L 212.156719 122.972552 
L 212.97039 125.567446 
L 213.78406 128.280246 
L 214.597731 131.11404 
L 215.411401 134.071323 
L 216.225072 137.153809 
L 217.038742 140.362235 
L 217.852413 143.696125 
L 218.666083 147.153523 
L 219.479754 150.730703 
L 220.293424 154.421845 
L 221.107095 158.218691 
L 221.920766 162.110195 
L 222.734436 166.08217 
L 223.548107 170.116946 
L 224.361777 174.193089 
L 225.175448 178.285169 
L 225.989118 182.363654 
L 226.802789 186.394928 
L 227.616459 190.341499 
L 228.43013 194.162416 
L 229.2438 197.813929 
L 230.057471 201.250406 
L 230.871141 204.425501 
L 231.684812 207.293545 
L 232.498483 209.811113 
L 233.312153 211.938673 
L 234.125824 213.64223 
L 234.939494 214.894837 
L 235.753165 215.67786 
L 236.566835 215.981891 
L 237.380506 215.807221 
L 238.194176 215.16385 
L 239.007847 214.070999 
L 239.821517 212.556208 
L 240.635188 210.654071 
L 241.448859 208.404721 
L 242.262529 205.852195 
L 243.0762 203.042778 
L 243.88987 200.023444 
L 244.703541 196.840466 
L 245.517211 193.538243 
L 246.330882 190.158392 
L 247.144552 186.739087 
L 247.958223 183.314641 
L 248.771893 179.915304 
L 249.585564 176.56724 
L 250.399234 173.292645 
L 251.212905 170.109969 
L 252.026576 167.034211 
L 252.840246 164.077251 
L 253.653917 161.248214 
L 254.467587 158.553818 
L 255.281258 155.998723 
L 256.094928 153.585853 
L 256.908599 151.316694 
L 257.722269 149.19156 
L 258.53594 147.209829 
L 259.34961 145.370153 
L 260.163281 143.670634 
L 260.976951 142.108978 
L 261.790622 140.682624 
L 262.604293 139.388853 
L 263.417963 138.224877 
L 264.231634 137.187916 
L 265.045304 136.275255 
L 265.858975 135.484295 
L 266.672645 134.812593 
L 267.486316 134.257894 
L 268.299986 133.818152 
L 269.113657 133.491555 
L 269.927327 133.276535 
L 270.740998 133.171782 
L 271.554668 133.176251 
L 272.368339 133.289169 
L 273.18201 133.510039 
L 273.99568 133.838641 
L 274.809351 134.275036 
L 275.623021 134.819567 
L 276.436692 135.472855 
L 277.250362 136.235801 
L 278.064033 137.109583 
L 278.877703 138.095654 
L 279.691374 139.195734 
L 280.505044 140.411813 
L 281.318715 141.746135 
L 282.132386 143.201197 
L 282.946056 144.779733 
L 283.759727 146.484704 
L 284.573397 148.319277 
L 285.387068 150.286808 
L 286.200738 152.390814 
L 287.014409 154.634941 
L 287.828079 157.022922 
L 288.64175 159.558538 
L 289.45542 162.245549 
L 290.269091 165.087638 
L 291.082761 168.088319 
L 291.896432 171.250851 
L 292.710103 174.578118 
L 293.523773 178.072502 
L 294.337444 181.735731 
L 295.151114 185.568706 
L 295.964785 189.571304 
L 296.778455 193.742155 
L 297.592126 198.078398 
L 298.405796 202.575409 
L 299.219467 207.226506 
L 300.033137 212.022643 
L 300.846808 216.952079 
L 301.660478 222.000057 
L 302.474149 227.148478 
L 303.28782 232.375604 
L 304.10149 237.655802 
L 304.915161 242.95935 
L 305.728831 248.252327 
L 306.542502 253.496621 
L 307.356172 258.650084 
L 308.169843 263.666844 
L 308.983513 268.497824 
L 309.797184 273.09145 
L 310.610854 277.394591 
L 311.424525 281.35368 
L 312.238195 284.91603 
L 313.051866 288.031269 
L 313.865537 290.652864 
L 314.679207 292.739628 
L 315.492878 294.257152 
L 316.306548 295.179059 
L 317.120219 295.488 
L 317.933889 295.176326 
L 318.74756 294.246386 
L 319.56123 292.710422 
L 320.374901 290.590086 
L 321.188571 287.915595 
L 322.002242 284.724592 
L 322.815913 281.060801 
L 323.629583 276.972533 
L 324.443254 272.51117 
L 325.256924 267.729671 
L 326.070595 262.681192 
L 326.884265 257.417859 
L 327.697936 251.989737 
L 328.511606 246.444005 
L 329.325277 240.824341 
L 330.138947 235.170511 
L 330.952618 229.518133 
L 331.766288 223.898603 
L 332.579959 218.339145 
L 333.39363 212.862967 
L 334.2073 207.489485 
L 335.020971 202.234604 
L 335.834641 197.111027 
L 336.648312 192.128583 
L 337.461982 187.294549 
L 338.275653 182.613966 
L 339.089323 178.089946 
L 339.902994 173.723945 
L 340.716664 169.516026 
L 341.530335 165.465086 
L 342.344005 161.569069 
L 343.157676 157.82514 
L 343.971347 154.229853 
L 344.785017 150.779286 
L 345.598688 147.469156 
L 346.412358 144.294925 
L 347.226029 141.251885 
L 348.039699 138.335223 
L 348.85337 135.540088 
L 349.66704 132.861633 
L 350.480711 130.295056 
L 351.294381 127.835634 
L 352.108052 125.478744 
L 352.921722 123.219884 
L 353.735393 121.054684 
L 354.549064 118.978921 
L 355.362734 116.988523 
L 356.176405 115.079574 
L 356.990075 113.248315 
L 357.803746 111.491145 
L 358.617416 109.804618 
L 359.431087 108.185446 
L 360.244757 106.630487 
L 361.058428 105.136749 
L 361.872098 103.701381 
L 362.685769 102.321668 
L 363.49944 100.99503 
L 364.31311 99.719011 
L 365.126781 98.491279 
L 365.940451 97.309615 
L 366.754122 96.171915 
L 367.567792 95.076177 
L 368.381463 94.020501 
L 369.195133 93.003084 
L 370.008804 92.022211 
L 370.822474 91.076257 
L 371.636145 90.163676 
L 372.449815 89.283 
L 373.263486 88.432835 
L 374.077157 87.611858 
L 374.890827 86.81881 
L 375.704498 86.052495 
L 376.518168 85.311778 
L 377.331839 84.595578 
L 378.145509 83.902867 
L 378.95918 83.232668 
L 379.77285 82.584053 
L 380.586521 81.956136 
L 381.400191 81.348075 
L 382.213862 80.75907 
L 383.027532 80.188356 
L 383.841203 79.635206 
L 384.654874 79.098928 
L 385.468544 78.57886 
L 386.282215 78.074373 
L 387.095885 77.584867 
L 387.909556 77.109768 
L 388.723226 76.648529 
L 389.536897 76.200628 
L 390.350567 75.765567 
L 391.164238 75.342869 
L 391.977908 74.93208 
L 392.791579 74.532765 
L 393.605249 74.144508 
L 394.41892 73.76691 
L 395.232591 73.399593 
L 396.046261 73.042192 
L 396.859932 72.694358 
L 397.673602 72.355757 
L 398.487273 72.026072 
L 398.487273 53.568 
L 398.487273 53.568 
L 397.673602 53.568 
L 396.859932 53.568 
L 396.046261 53.568 
L 395.232591 53.568 
L 394.41892 53.568 
L 393.605249 53.568 
L 392.791579 53.568 
L 391.977908 53.568 
L 391.164238 53.568 
L 390.350567 53.568 
L 389.536897 53.568 
L 388.723226 53.568 
L 387.909556 53.568 
L 387.095885 53.568 
L 386.282215 53.568 
L 385.468544 53.568 
L 384.654874 53.568 
L 383.841203 53.568 
L 383.027532 53.568 
L 382.213862 53.568 
L 381.400191 53.568 
L 380.586521 53.568 
L 379.77285 53.568 
L 378.95918 53.568 
L 378.145509 53.568 
L 377.331839 53.568 
L 376.518168 53.568 
L 375.704498 53.568 
L 374.890827 53.568 
L 374.077157 53.568 
L 373.263486 53.568 
L 372.449815 53.568 
L 371.636145 53.568 
L 370.822474 53.568 
L 370.008804 53.568 
L 369.195133 53.568 
L 368.381463 53.568 
L 367.567792 53.568 
L 366.754122 53.568 
L 365.940451 53.568 
L 365.126781 53.568 
L 364.31311 53.568 
L 363.49944 53.568 
L 362.685769 53.568 
L 361.872098 53.568 
L 361.058428 53.568 
L 360.244757 53.568 
L 359.431087 53.568 
L 358.617416 53.568 
L 357.803746 53.568 
L 356.990075 53.568 
L 356.176405 53.568 
L 355.362734 53.568 
L 354.549064 53.568 
L 353.735393 53.568 
L 352.921722 53.568 
L 352.108052 53.568 
L 351.294381 53.568 
L 350.480711 53.568 
L 349.66704 53.568 
L 348.85337 53.568 
L 348.039699 53.568 
L 347.226029 53.568 
L 346.412358 53.568 
L 345.598688 53.568 
L 344.785017 53.568 
L 343.971347 53.568 
L 343.157676 53.568 
L 342.344005 53.568 
L 341.530335 53.568 
L 340.716664 53.568 
L 339.902994 53.568 
L 339.089323 53.568 
L 338.275653 53.568 
L 337.461982 53.568 
L 336.648312 53.568 
L 335.834641 53.568 
L 335.020971 53.568 
L 334.2073 53.568 
L 333.39363 53.568 
L 332.579959 53.568 
L 331.766288 53.568 
L 330.952618 53.568 
L 330.138947 53.568 
L 329.325277 53.568 
L 328.511606 53.568 
L 327.697936 53.568 
L 326.884265 53.568 
L 326.070595 53.568 
L 325.256924 53.568 
L 324.443254 53.568 
L 323.629583 53.568 
L 322.815913 53.568 
L 322.002242 53.568 
L 321.188571 53.568 
L 320.374901 53.568 
L 319.56123 53.568 
L 318.74756 53.568 
L 317.933889 53.568 
L 317.120219 53.568 
L 316.306548 53.568 
L 315.492878 53.568 
L 314.679207 53.568 
L 313.865537 53.568 
L 313.051866 53.568 
L 312.238195 53.568 
L 311.424525 53.568 
L 310.610854 53.568 
L 309.797184 53.568 
L 308.983513 53.568 
L 308.169843 53.568 
L 307.356172 53.568 
L 306.542502 53.568 
L 305.728831 53.568 
L 304.915161 53.568 
L 304.10149 53.568 
L 303.28782 53.568 
L 302.474149 53.568 
L 301.660478 53.568 
L 300.846808 53.568 
L 300.033137 53.568 
L 299.219467 53.568 
L 298.405796 53.568 
L 297.592126 53.568 
L 296.778455 53.568 
L 295.964785 53.568 
L 295.151114 53.568 
L 294.337444 53.568 
L 293.523773 53.568 
L 292.710103 53.568 
L 291.896432 53.568 
L 291.082761 53.568 
L 290.269091 53.568 
L 289.45542 53.568 
L 288.64175 53.568 
L 287.828079 53.568 
L 287.014409 53.568 
L 286.200738 53.568 
L 285.387068 53.568 
L 284.573397 53.568 
L 283.759727 53.568 
L 282.946056 53.568 
L 282.132386 53.568 
L 281.318715 53.568 
L 280.505044 53.568 
L 279.691374 53.568 
L 278.877703 53.568 
L 278.064033 53.568 
L 277.250362 53.568 
L 276.436692 53.568 
L 275.623021 53.568 
L 274.809351 53.568 
L 273.99568 53.568 
L 273.18201 53.568 
L 272.368339 53.568 
L 271.554668 53.568 
L 270.740998 53.568 
L 269.927327 53.568 
L 269.113657 53.568 
L 268.299986 53.568 
L 267.486316 53.568 
L 266.672645 53.568 
L 265.858975 53.568 
L 265.045304 53.568 
L 264.231634 53.568 
L 263.417963 53.568 
L 262.604293 53.568 
L 261.790622 53.568 
L 260.976951 53.568 
L 260.163281 53.568 
L 259.34961 53.568 
L 258.53594 53.568 
L 257.722269 53.568 
L 256.908599 53.568 
L 256.094928 53.568 
L 255.281258 53.568 
L 254.467587 53.568 
L 253.653917 53.568 
L 252.840246 53.568 
L 252.026576 53.568 
L 251.212905 53.568 
L 250.399234 53.568 
L 249.585564 53.568 
L 248.771893 53.568 
L 247.958223 53.568 
L 247.144552 53.568 
L 246.330882 53.568 
L 245.517211 53.568 
L 244.703541 53.568 
L 243.88987 53.568 
L 243.0762 53.568 
L 242.262529 53.568 
L 241.448859 53.568 
L 240.635188 53.568 
L 239.821517 53.568 
L 239.007847 53.568 
L 238.194176 53.568 
L 237.380506 53.568 
L 236.566835 53.568 
L 235.753165 53.568 
L 234.939494 53.568 
L 234.125824 53.568 
L 233.312153 53.568 
L 232.498483 53.568 
L 231.684812 53.568 
L 230.871141 53.568 
L 230.057471 53.568 
L 229.2438 53.568 
L 228.43013 53.568 
L 227.616459 53.568 
L 226.802789 53.568 
L 225.989118 53.568 
L 225.175448 53.568 
L 224.361777 53.568 
L 223.548107 53.568 
L 222.734436 53.568 
L 221.920766 53.568 
L 221.107095 53.568 
L 220.293424 53.568 
L 219.479754 53.568 
L 218.666083 53.568 
L 217.852413 53.568 
L 217.038742 53.568 
L 216.225072 53.568 
L 215.411401 53.568 
L 214.597731 53.568 
L 213.78406 53.568 
L 212.97039 53.568 
L 212.156719 53.568 
L 211.343049 53.568 
L 210.529378 53.568 
L 209.715707 53.568 
L 208.902037 53.568 
L 208.088366 53.568 
L 207.274696 53.568 
L 206.461025 53.568 
L 205.647355 53.568 
L 204.833684 53.568 
L 204.020014 53.568 
L 203.206343 53.568 
L 202.392673 53.568 
L 201.579002 53.568 
L 200.765332 53.568 
L 199.951661 53.568 
L 199.13799 53.568 
L 198.32432 53.568 
L 197.510649 53.568 
L 196.696979 53.568 
L 195.883308 53.568 
L 195.069638 53.568 
L 194.255967 53.568 
L 193.442297 53.568 
L 192.628626 53.568 
L 191.814956 53.568 
L 191.001285 53.568 
L 190.187614 53.568 
L 189.373944 53.568 
L 188.560273 53.568 
L 187.746603 53.568 
L 186.932932 53.568 
L 186.119262 53.568 
L 185.305591 53.568 
L 184.491921 53.568 
L 183.67825 53.568 
L 182.86458 53.568 
L 182.050909 53.568 
L 181.237239 53.568 
L 180.423568 53.568 
L 179.609897 53.568 
L 178.796227 53.568 
L 177.982556 53.568 
L 177.168886 53.568 
L 176.355215 53.568 
L 175.541545 53.568 
L 174.727874 53.568 
L 173.914204 53.568 
L 173.100533 53.568 
L 172.286863 53.568 
L 171.473192 53.568 
L 170.659522 53.568 
L 169.845851 53.568 
L 169.03218 53.568 
L 168.21851 53.568 
L 167.404839 53.568 
L 166.591169 53.568 
L 165.777498 53.568 
L 164.963828 53.568 
L 164.150157 53.568 
L 163.336487 53.568 
L 162.522816 53.568 
L 161.709146 53.568 
L 160.895475 53.568 
L 160.081805 53.568 
L 159.268134 53.568 
L 158.454463 53.568 
L 157.640793 53.568 
L 156.827122 53.568 
L 156.013452 53.568 
L 155.199781 53.568 
L 154.386111 53.568 
L 153.57244 53.568 
L 152.75877 53.568 
L 151.945099 53.568 
L 151.131429 53.568 
L 150.317758 53.568 
L 149.504087 53.568 
L 148.690417 53.568 
L 147.876746 53.568 
L 147.063076 53.568 
L 146.249405 53.568 
L 145.435735 53.568 
L 144.622064 53.568 
L 143.808394 53.568 
L 142.994723 53.568 
L 142.181053 53.568 
L 141.367382 53.568 
L 140.553712 53.568 
L 139.740041 53.568 
L 138.92637 53.568 
L 138.1127 53.568 
L 137.299029 53.568 
L 136.485359 53.568 
L 135.671688 53.568 
L 134.858018 53.568 
L 134.044347 53.568 
L 133.230677 53.568 
L 132.417006 53.568 
L 131.603336 53.568 
L 130.789665 53.568 
L 129.975995 53.568 
L 129.162324 53.568 
L 128.348653 53.568 
L 127.534983 53.568 
L 126.721312 53.568 
L 125.907642 53.568 
L 125.093971 53.568 
L 124.280301 53.568 
L 123.46663 53.568 
L 122.65296 53.568 
L 121.839289 53.568 
L 121.025619 53.568 
L 120.211948 53.568 
L 119.398278 53.568 
L 118.584607 53.568 
L 117.770936 53.568 
L 116.957266 53.568 
L 116.143595 53.568 
L 115.329925 53.568 
L 114.516254 53.568 
L 113.702584 53.568 
L 112.888913 53.568 
L 112.075243 53.568 
L 111.261572 53.568 
L 110.447902 53.568 
L 109.634231 53.568 
L 108.82056 53.568 
L 108.00689 53.568 
L 107.193219 53.568 
L 106.379549 53.568 
L 105.565878 53.568 
L 104.752208 53.568 
L 103.938537 53.568 
L 103.124867 53.568 
L 102.311196 53.568 
L 101.497526 53.568 
L 100.683855 53.568 
L 99.870185 53.568 
L 99.056514 53.568 
L 98.242843 53.568 
L 97.429173 53.568 
L 96.615502 53.568 
L 95.801832 53.568 
L 94.988161 53.568 
L 94.174491 53.568 
L 93.36082 53.568 
L 92.54715 53.568 
L 91.733479 53.568 
L 90.919809 53.568 
L 90.106138 53.568 
L 89.292468 53.568 
L 88.478797 53.568 
L 87.665126 53.568 
L 86.851456 53.568 
L 86.037785 53.568 
L 85.224115 53.568 
L 84.410444 53.568 
L 83.596774 53.568 
L 82.783103 53.568 
L 81.969433 53.568 
L 81.155762 53.568 
L 80.342092 53.568 
L 79.528421 53.568 
L 78.714751 53.568 
L 77.90108 53.568 
L 77.087409 53.568 
L 76.273739 53.568 
L 75.460068 53.568 
L 74.646398 53.568 
L 73.832727 53.568 
z
" clip-path="url(#p6d66b85903)" style="fill: #1f77b4; fill-opacity: 0.5"/>
   </g>
   <g id="patch_3">
    <path d="M 226.184932 121.90457 
L 224.56166 122.780701 
L 224.56166 121.922093 
L 211.810909 121.922093 
L 211.810909 121.887047 
L 224.56166 121.887047 
L 224.56166 121.028439 
z
" clip-path="url(#p6d66b85903)" style="fill: #ff0000; stroke: #ff0000; stroke-linejoin: miter"/>
   </g>
   <g id="matplotlib.axis_1">
    <g id="xtick_1">
     <g id="line2d_1">
      <defs>
       <path id="m03df29e14c" d="M 0 0 
L 0 3.5 
" style="stroke: #000000; stroke-width: 0.8"/>
      </defs>
      <g>
       <use xlink:href="#m03df29e14c" x="73.832727" y="307.584" style="stroke: #000000; stroke-width: 0.8"/>
      </g>
     </g>
     <g id="text_1">
      <!-- −4 -->
      <g transform="translate(66.461634 322.182437) scale(0.1 -0.1)">
       <defs>
        <path id="DejaVuSans-2212" d="M 678 2272 
L 4684 2272 
L 4684 1741 
L 678 1741 
L 678 2272 
z
" transform="scale(0.015625)"/>
        <path id="DejaVuSans-34" d="M 2419 4116 
L 825 1625 
L 2419 1625 
L 2419 4116 
z
M 2253 4666 
L 3047 4666 
L 3047 1625 
L 3713 1625 
L 3713 1100 
L 3047 1100 
L 3047 0 
L 2419 0 
L 2419 1100 
L 313 1100 
L 313 1709 
L 2253 4666 
z
" transform="scale(0.015625)"/>
       </defs>
       <use xlink:href="#DejaVuSans-2212"/>
       <use xlink:href="#DejaVuSans-34" x="83.789062"/>
      </g>
     </g>
    </g>
    <g id="xtick_2">
     <g id="line2d_2">
      <g>
       <use xlink:href="#m03df29e14c" x="114.414545" y="307.584" style="stroke: #000000; stroke-width: 0.8"/>
      </g>
     </g>
     <g id="text_2">
      <!-- −3 -->
      <g transform="translate(107.043452 322.182437) scale(0.1 -0.1)">
       <defs>
        <path id="DejaVuSans-33" d="M 2597 2516 
Q 3050 2419 3304 2112 
Q 3559 1806 3559 1356 
Q 3559 666 3084 287 
Q 2609 -91 1734 -91 
Q 1441 -91 1130 -33 
Q 819 25 488 141 
L 488 750 
Q 750 597 1062 519 
Q 1375 441 1716 441 
Q 2309 441 2620 675 
Q 2931 909 2931 1356 
Q 2931 1769 2642 2001 
Q 2353 2234 1838 2234 
L 1294 2234 
L 1294 2753 
L 1863 2753 
Q 2328 2753 2575 2939 
Q 2822 3125 2822 3475 
Q 2822 3834 2567 4026 
Q 2313 4219 1838 4219 
Q 1578 4219 1281 4162 
Q 984 4106 628 3988 
L 628 4550 
Q 988 4650 1302 4700 
Q 1616 4750 1894 4750 
Q 2613 4750 3031 4423 
Q 3450 4097 3450 3541 
Q 3450 3153 3228 2886 
Q 3006 2619 2597 2516 
z
" transform="scale(0.015625)"/>
       </defs>
       <use xlink:href="#DejaVuSans-2212"/>
       <use xlink:href="#DejaVuSans-33" x="83.789062"/>
      </g>
     </g>
    </g>
    <g id="xtick_3">
     <g id="line2d_3">
      <g>
       <use xlink:href="#m03df29e14c" x="154.996364" y="307.584" style="stroke: #000000; stroke-width: 0.8"/>
      </g>
     </g>
     <g id="text_3">
      <!-- −2 -->
      <g transform="translate(147.62527 322.182437) scale(0.1 -0.1)">
       <defs>
        <path id="DejaVuSans-32" d="M 1228 531 
L 3431 531 
L 3431 0 
L 469 0 
L 469 531 
Q 828 903 1448 1529 
Q 2069 2156 2228 2338 
Q 2531 2678 2651 2914 
Q 2772 3150 2772 3378 
Q 2772 3750 2511 3984 
Q 2250 4219 1831 4219 
Q 1534 4219 1204 4116 
Q 875 4013 500 3803 
L 500 4441 
Q 881 4594 1212 4672 
Q 1544 4750 1819 4750 
Q 2544 4750 2975 4387 
Q 3406 4025 3406 3419 
Q 3406 3131 3298 2873 
Q 3191 2616 2906 2266 
Q 2828 2175 2409 1742 
Q 1991 1309 1228 531 
z
" transform="scale(0.015625)"/>
       </defs>
       <use xlink:href="#DejaVuSans-2212"/>
       <use xlink:href="#DejaVuSans-32" x="83.789062"/>
      </g>
     </g>
    </g>
    <g id="xtick_4">
     <g id="line2d_4">
      <g>
       <use xlink:href="#m03df29e14c" x="195.578182" y="307.584" style="stroke: #000000; stroke-width: 0.8"/>
      </g>
     </g>
     <g id="text_4">
      <!-- −1 -->
      <g transform="translate(188.207088 322.182437) scale(0.1 -0.1)">
       <defs>
        <path id="DejaVuSans-31" d="M 794 531 
L 1825 531 
L 1825 4091 
L 703 3866 
L 703 4441 
L 1819 4666 
L 2450 4666 
L 2450 531 
L 3481 531 
L 3481 0 
L 794 0 
L 794 531 
z
" transform="scale(0.015625)"/>
       </defs>
       <use xlink:href="#DejaVuSans-2212"/>
       <use xlink:href="#DejaVuSans-31" x="83.789062"/>
      </g>
     </g>
    </g>
    <g id="xtick_5">
     <g id="line2d_5">
      <g>
       <use xlink:href="#m03df29e14c" x="236.16" y="307.584" style="stroke: #000000; stroke-width: 0.8"/>
      </g>
     </g>
     <g id="text_5">
      <!-- 0 -->
      <g transform="translate(232.97875 322.182437) scale(0.1 -0.1)">
       <defs>
        <path id="DejaVuSans-30" d="M 2034 4250 
Q 1547 4250 1301 3770 
Q 1056 3291 1056 2328 
Q 1056 1369 1301 889 
Q 1547 409 2034 409 
Q 2525 409 2770 889 
Q 3016 1369 3016 2328 
Q 3016 3291 2770 3770 
Q 2525 4250 2034 4250 
z
M 2034 4750 
Q 2819 4750 3233 4129 
Q 3647 3509 3647 2328 
Q 3647 1150 3233 529 
Q 2819 -91 2034 -91 
Q 1250 -91 836 529 
Q 422 1150 422 2328 
Q 422 3509 836 4129 
Q 1250 4750 2034 4750 
z
" transform="scale(0.015625)"/>
       </defs>
       <use xlink:href="#DejaVuSans-30"/>
      </g>
     </g>
    </g>
    <g id="xtick_6">
     <g id="line2d_6">
      <g>
       <use xlink:href="#m03df29e14c" x="276.741818" y="307.584" style="stroke: #000000; stroke-width: 0.8"/>
      </g>
     </g>
     <g id="text_6">
      <!-- 1 -->
      <g transform="translate(273.560568 322.182437) scale(0.1 -0.1)">
       <use xlink:href="#DejaVuSans-31"/>
      </g>
     </g>
    </g>
    <g id="xtick_7">
     <g id="line2d_7">
      <g>
       <use xlink:href="#m03df29e14c" x="317.323636" y="307.584" style="stroke: #000000; stroke-width: 0.8"/>
      </g>
     </g>
     <g id="text_7">
      <!-- 2 -->
      <g transform="translate(314.142386 322.182437) scale(0.1 -0.1)">
       <use xlink:href="#DejaVuSans-32"/>
      </g>
     </g>
    </g>
    <g id="xtick_8">
     <g id="line2d_8">
      <g>
       <use xlink:href="#m03df29e14c" x="357.905455" y="307.584" style="stroke: #000000; stroke-width: 0.8"/>
      </g>
     </g>
     <g id="text_8">
      <!-- 3 -->
      <g transform="translate(354.724205 322.182437) scale(0.1 -0.1)">
       <use xlink:href="#DejaVuSans-33"/>
      </g>
     </g>
    </g>
    <g id="xtick_9">
     <g id="line2d_9">
      <g>
       <use xlink:href="#m03df29e14c" x="398.487273" y="307.584" style="stroke: #000000; stroke-width: 0.8"/>
      </g>
     </g>
     <g id="text_9">
      <!-- 4 -->
      <g transform="translate(395.306023 322.182437) scale(0.1 -0.1)">
       <use xlink:href="#DejaVuSans-34"/>
      </g>
     </g>
    </g>
   </g>
   <g id="matplotlib.axis_2">
    <g id="ytick_1">
     <g id="line2d_10">
      <defs>
       <path id="mf73580cf6a" d="M 0 0 
L -3.5 0 
" style="stroke: #000000; stroke-width: 0.8"/>
      </defs>
      <g>
       <use xlink:href="#mf73580cf6a" x="57.6" y="298.884704" style="stroke: #000000; stroke-width: 0.8"/>
      </g>
     </g>
     <g id="text_10">
      <!-- −7 -->
      <g transform="translate(35.857813 302.683923) scale(0.1 -0.1)">
       <defs>
        <path id="DejaVuSans-37" d="M 525 4666 
L 3525 4666 
L 3525 4397 
L 1831 0 
L 1172 0 
L 2766 4134 
L 525 4134 
L 525 4666 
z
" transform="scale(0.015625)"/>
       </defs>
       <use xlink:href="#DejaVuSans-2212"/>
       <use xlink:href="#DejaVuSans-37" x="83.789062"/>
      </g>
     </g>
    </g>
    <g id="ytick_2">
     <g id="line2d_11">
      <g>
       <use xlink:href="#mf73580cf6a" x="57.6" y="263.839461" style="stroke: #000000; stroke-width: 0.8"/>
      </g>
     </g>
     <g id="text_11">
      <!-- −6 -->
      <g transform="translate(35.857813 267.63868) scale(0.1 -0.1)">
       <defs>
        <path id="DejaVuSans-36" d="M 2113 2584 
Q 1688 2584 1439 2293 
Q 1191 2003 1191 1497 
Q 1191 994 1439 701 
Q 1688 409 2113 409 
Q 2538 409 2786 701 
Q 3034 994 3034 1497 
Q 3034 2003 2786 2293 
Q 2538 2584 2113 2584 
z
M 3366 4563 
L 3366 3988 
Q 3128 4100 2886 4159 
Q 2644 4219 2406 4219 
Q 1781 4219 1451 3797 
Q 1122 3375 1075 2522 
Q 1259 2794 1537 2939 
Q 1816 3084 2150 3084 
Q 2853 3084 3261 2657 
Q 3669 2231 3669 1497 
Q 3669 778 3244 343 
Q 2819 -91 2113 -91 
Q 1303 -91 875 529 
Q 447 1150 447 2328 
Q 447 3434 972 4092 
Q 1497 4750 2381 4750 
Q 2619 4750 2861 4703 
Q 3103 4656 3366 4563 
z
" transform="scale(0.015625)"/>
       </defs>
       <use xlink:href="#DejaVuSans-2212"/>
       <use xlink:href="#DejaVuSans-36" x="83.789062"/>
      </g>
     </g>
    </g>
    <g id="ytick_3">
     <g id="line2d_12">
      <g>
       <use xlink:href="#mf73580cf6a" x="57.6" y="228.794217" style="stroke: #000000; stroke-width: 0.8"/>
      </g>
     </g>
     <g id="text_12">
      <!-- −5 -->
      <g transform="translate(35.857813 232.593436) scale(0.1 -0.1)">
       <defs>
        <path id="DejaVuSans-35" d="M 691 4666 
L 3169 4666 
L 3169 4134 
L 1269 4134 
L 1269 2991 
Q 1406 3038 1543 3061 
Q 1681 3084 1819 3084 
Q 2600 3084 3056 2656 
Q 3513 2228 3513 1497 
Q 3513 744 3044 326 
Q 2575 -91 1722 -91 
Q 1428 -91 1123 -41 
Q 819 9 494 109 
L 494 744 
Q 775 591 1075 516 
Q 1375 441 1709 441 
Q 2250 441 2565 725 
Q 2881 1009 2881 1497 
Q 2881 1984 2565 2268 
Q 2250 2553 1709 2553 
Q 1456 2553 1204 2497 
Q 953 2441 691 2322 
L 691 4666 
z
" transform="scale(0.015625)"/>
       </defs>
       <use xlink:href="#DejaVuSans-2212"/>
       <use xlink:href="#DejaVuSans-35" x="83.789062"/>
      </g>
     </g>
    </g>
    <g id="ytick_4">
     <g id="line2d_13">
      <g>
       <use xlink:href="#mf73580cf6a" x="57.6" y="193.748974" style="stroke: #000000; stroke-width: 0.8"/>
      </g>
     </g>
     <g id="text_13">
      <!-- −4 -->
      <g transform="translate(35.857813 197.548193) scale(0.1 -0.1)">
       <use xlink:href="#DejaVuSans-2212"/>
       <use xlink:href="#DejaVuSans-34" x="83.789062"/>
      </g>
     </g>
    </g>
    <g id="ytick_5">
     <g id="line2d_14">
      <g>
       <use xlink:href="#mf73580cf6a" x="57.6" y="158.70373" style="stroke: #000000; stroke-width: 0.8"/>
      </g>
     </g>
     <g id="text_14">
      <!-- −3 -->
      <g transform="translate(35.857813 162.502949) scale(0.1 -0.1)">
       <use xlink:href="#DejaVuSans-2212"/>
       <use xlink:href="#DejaVuSans-33" x="83.789062"/>
      </g>
     </g>
    </g>
    <g id="ytick_6">
     <g id="line2d_15">
      <g>
       <use xlink:href="#mf73580cf6a" x="57.6" y="123.658487" style="stroke: #000000; stroke-width: 0.8"/>
      </g>
     </g>
     <g id="text_15">
      <!-- −2 -->
      <g transform="translate(35.857813 127.457706) scale(0.1 -0.1)">
       <use xlink:href="#DejaVuSans-2212"/>
       <use xlink:href="#DejaVuSans-32" x="83.789062"/>
      </g>
     </g>
    </g>
    <g id="ytick_7">
     <g id="line2d_16">
      <g>
       <use xlink:href="#mf73580cf6a" x="57.6" y="88.613243" style="stroke: #000000; stroke-width: 0.8"/>
      </g>
     </g>
     <g id="text_16">
      <!-- −1 -->
      <g transform="translate(35.857813 92.412462) scale(0.1 -0.1)">
       <use xlink:href="#DejaVuSans-2212"/>
       <use xlink:href="#DejaVuSans-31" x="83.789062"/>
      </g>
     </g>
    </g>
    <g id="ytick_8">
     <g id="line2d_17">
      <g>
       <use xlink:href="#mf73580cf6a" x="57.6" y="53.568" style="stroke: #000000; stroke-width: 0.8"/>
      </g>
     </g>
     <g id="text_17">
      <!-- 0 -->
      <g transform="translate(44.2375 57.367219) scale(0.1 -0.1)">
       <use xlink:href="#DejaVuSans-30"/>
      </g>
     </g>
    </g>
   </g>
   <g id="line2d_18">
    <path d="M 73.832727 57.656826 
L 90.919809 58.484123 
L 104.752208 59.362451 
L 116.957266 60.360158 
L 126.721312 61.3677 
L 135.671688 62.51487 
L 142.994723 63.665301 
L 149.504087 64.897547 
L 155.199781 66.183237 
L 160.081805 67.47945 
L 164.963828 68.999518 
L 169.03218 70.477124 
L 173.100533 72.190639 
L 176.355215 73.766851 
L 179.609897 75.562524 
L 182.86458 77.620219 
L 186.119262 79.992828 
L 188.560273 82.018094 
L 191.001285 84.291189 
L 193.442297 86.852319 
L 195.883308 89.749222 
L 198.32432 93.038508 
L 200.765332 96.787046 
L 203.206343 101.073242 
L 205.647355 105.987818 
L 208.088366 111.63344 
L 210.529378 118.121987 
L 212.97039 125.567446 
L 215.411401 134.071323 
L 217.852413 143.696125 
L 220.293424 154.421845 
L 223.548107 170.116946 
L 228.43013 194.162416 
L 230.057471 201.250406 
L 231.684812 207.293545 
L 232.498483 209.811113 
L 233.312153 211.938673 
L 234.125824 213.64223 
L 234.939494 214.894837 
L 235.753165 215.67786 
L 236.566835 215.981891 
L 237.380506 215.807221 
L 238.194176 215.16385 
L 239.007847 214.070999 
L 239.821517 212.556208 
L 240.635188 210.654071 
L 242.262529 205.852195 
L 243.88987 200.023444 
L 246.330882 190.158392 
L 251.212905 170.109969 
L 253.653917 161.248214 
L 255.281258 155.998723 
L 256.908599 151.316694 
L 258.53594 147.209829 
L 260.163281 143.670634 
L 261.790622 140.682624 
L 263.417963 138.224877 
L 265.045304 136.275255 
L 266.672645 134.812593 
L 268.299986 133.818152 
L 269.927327 133.276535 
L 271.554668 133.176251 
L 273.18201 133.510039 
L 274.809351 134.275036 
L 276.436692 135.472855 
L 278.064033 137.109583 
L 279.691374 139.195734 
L 281.318715 141.746135 
L 282.946056 144.779733 
L 284.573397 148.319277 
L 286.200738 152.390814 
L 287.828079 157.022922 
L 289.45542 162.245549 
L 291.082761 168.088319 
L 292.710103 174.578118 
L 294.337444 181.735731 
L 296.778455 193.742155 
L 299.219467 207.226506 
L 301.660478 222.000057 
L 309.797184 273.09145 
L 311.424525 281.35368 
L 313.051866 288.031269 
L 313.865537 290.652864 
L 314.679207 292.739628 
L 315.492878 294.257152 
L 316.306548 295.179059 
L 317.120219 295.488 
L 317.933889 295.176326 
L 318.74756 294.246386 
L 319.56123 292.710422 
L 320.374901 290.590086 
L 321.188571 287.915595 
L 322.002242 284.724592 
L 323.629583 276.972533 
L 325.256924 267.729671 
L 327.697936 251.989737 
L 335.834641 197.111027 
L 338.275653 182.613966 
L 340.716664 169.516026 
L 343.157676 157.82514 
L 345.598688 147.469156 
L 348.039699 138.335223 
L 350.480711 130.295056 
L 352.921722 123.219884 
L 355.362734 116.988523 
L 357.803746 111.491145 
L 360.244757 106.630487 
L 362.685769 102.321668 
L 365.126781 98.491279 
L 367.567792 95.076177 
L 370.008804 92.022211 
L 372.449815 89.283 
L 374.890827 86.81881 
L 378.145509 83.902867 
L 381.400191 81.348075 
L 384.654874 79.098928 
L 387.909556 77.109768 
L 391.164238 75.342869 
L 395.232591 73.399593 
L 398.487273 72.026072 
L 398.487273 72.026072 
" clip-path="url(#p6d66b85903)" style="fill: none; stroke: #1f77b4; stroke-width: 1.5; stroke-linecap: square"/>
   </g>
   <g id="line2d_19">
    <defs>
     <path id="m7fbb1967f9" d="M 0 3 
C 0.795609 3 1.55874 2.683901 2.12132 2.12132 
C 2.683901 1.55874 3 0.795609 3 0 
C 3 -0.795609 2.683901 -1.55874 2.12132 -2.12132 
C 1.55874 -2.683901 0.795609 -3 0 -3 
C -0.795609 -3 -1.55874 -2.683901 -2.12132 -2.12132 
C -2.683901 -1.55874 -3 -0.795609 -3 0 
C -3 0.795609 -2.683901 1.55874 -2.12132 2.12132 
C -1.55874 2.683901 -0.795609 3 0 3 
z
" style="stroke: #ff0000"/>
    </defs>
    <g clip-path="url(#p6d66b85903)">
     <use xlink:href="#m7fbb1967f9" x="211.810909" y="121.90457" style="fill: #ff0000; stroke: #ff0000"/>
    </g>
   </g>
   <g id="patch_4">
    <path d="M 57.6 307.584 
L 57.6 41.472 
" style="fill: none; stroke: #000000; stroke-width: 0.8; stroke-linejoin: miter; stroke-linecap: square"/>
   </g>
   <g id="patch_5">
    <path d="M 414.72 307.584 
L 414.72 41.472 
" style="fill: none; stroke: #000000; stroke-width: 0.8; stroke-linejoin: miter; stroke-linecap: square"/>
   </g>
   <g id="patch_6">
    <path d="M 57.6 307.584 
L 414.72 307.584 
" style="fill: none; stroke: #000000; stroke-width: 0.8; stroke-linejoin: miter; stroke-linecap: square"/>
   </g>
   <g id="patch_7">
    <path d="M 57.6 41.472 
L 414.72 41.472 
" style="fill: none; stroke: #000000; stroke-width: 0.8; stroke-linejoin: miter; stroke-linecap: square"/>
   </g>
   <g id="text_18">
    <!-- Potensiell energi -->
    <g transform="translate(186.493125 35.472) scale(0.12 -0.12)">
     <defs>
      <path id="DejaVuSans-50" d="M 1259 4147 
L 1259 2394 
L 2053 2394 
Q 2494 2394 2734 2622 
Q 2975 2850 2975 3272 
Q 2975 3691 2734 3919 
Q 2494 4147 2053 4147 
L 1259 4147 
z
M 628 4666 
L 2053 4666 
Q 2838 4666 3239 4311 
Q 3641 3956 3641 3272 
Q 3641 2581 3239 2228 
Q 2838 1875 2053 1875 
L 1259 1875 
L 1259 0 
L 628 0 
L 628 4666 
z
" transform="scale(0.015625)"/>
      <path id="DejaVuSans-6f" d="M 1959 3097 
Q 1497 3097 1228 2736 
Q 959 2375 959 1747 
Q 959 1119 1226 758 
Q 1494 397 1959 397 
Q 2419 397 2687 759 
Q 2956 1122 2956 1747 
Q 2956 2369 2687 2733 
Q 2419 3097 1959 3097 
z
M 1959 3584 
Q 2709 3584 3137 3096 
Q 3566 2609 3566 1747 
Q 3566 888 3137 398 
Q 2709 -91 1959 -91 
Q 1206 -91 779 398 
Q 353 888 353 1747 
Q 353 2609 779 3096 
Q 1206 3584 1959 3584 
z
" transform="scale(0.015625)"/>
      <path id="DejaVuSans-74" d="M 1172 4494 
L 1172 3500 
L 2356 3500 
L 2356 3053 
L 1172 3053 
L 1172 1153 
Q 1172 725 1289 603 
Q 1406 481 1766 481 
L 2356 481 
L 2356 0 
L 1766 0 
Q 1100 0 847 248 
Q 594 497 594 1153 
L 594 3053 
L 172 3053 
L 172 3500 
L 594 3500 
L 594 4494 
L 1172 4494 
z
" transform="scale(0.015625)"/>
      <path id="DejaVuSans-65" d="M 3597 1894 
L 3597 1613 
L 953 1613 
Q 991 1019 1311 708 
Q 1631 397 2203 397 
Q 2534 397 2845 478 
Q 3156 559 3463 722 
L 3463 178 
Q 3153 47 2828 -22 
Q 2503 -91 2169 -91 
Q 1331 -91 842 396 
Q 353 884 353 1716 
Q 353 2575 817 3079 
Q 1281 3584 2069 3584 
Q 2775 3584 3186 3129 
Q 3597 2675 3597 1894 
z
M 3022 2063 
Q 3016 2534 2758 2815 
Q 2500 3097 2075 3097 
Q 1594 3097 1305 2825 
Q 1016 2553 972 2059 
L 3022 2063 
z
" transform="scale(0.015625)"/>
      <path id="DejaVuSans-6e" d="M 3513 2113 
L 3513 0 
L 2938 0 
L 2938 2094 
Q 2938 2591 2744 2837 
Q 2550 3084 2163 3084 
Q 1697 3084 1428 2787 
Q 1159 2491 1159 1978 
L 1159 0 
L 581 0 
L 581 3500 
L 1159 3500 
L 1159 2956 
Q 1366 3272 1645 3428 
Q 1925 3584 2291 3584 
Q 2894 3584 3203 3211 
Q 3513 2838 3513 2113 
z
" transform="scale(0.015625)"/>
      <path id="DejaVuSans-73" d="M 2834 3397 
L 2834 2853 
Q 2591 2978 2328 3040 
Q 2066 3103 1784 3103 
Q 1356 3103 1142 2972 
Q 928 2841 928 2578 
Q 928 2378 1081 2264 
Q 1234 2150 1697 2047 
L 1894 2003 
Q 2506 1872 2764 1633 
Q 3022 1394 3022 966 
Q 3022 478 2636 193 
Q 2250 -91 1575 -91 
Q 1294 -91 989 -36 
Q 684 19 347 128 
L 347 722 
Q 666 556 975 473 
Q 1284 391 1588 391 
Q 1994 391 2212 530 
Q 2431 669 2431 922 
Q 2431 1156 2273 1281 
Q 2116 1406 1581 1522 
L 1381 1569 
Q 847 1681 609 1914 
Q 372 2147 372 2553 
Q 372 3047 722 3315 
Q 1072 3584 1716 3584 
Q 2034 3584 2315 3537 
Q 2597 3491 2834 3397 
z
" transform="scale(0.015625)"/>
      <path id="DejaVuSans-69" d="M 603 3500 
L 1178 3500 
L 1178 0 
L 603 0 
L 603 3500 
z
M 603 4863 
L 1178 4863 
L 1178 4134 
L 603 4134 
L 603 4863 
z
" transform="scale(0.015625)"/>
      <path id="DejaVuSans-6c" d="M 603 4863 
L 1178 4863 
L 1178 0 
L 603 0 
L 603 4863 
z
" transform="scale(0.015625)"/>
      <path id="DejaVuSans-20" transform="scale(0.015625)"/>
      <path id="DejaVuSans-72" d="M 2631 2963 
Q 2534 3019 2420 3045 
Q 2306 3072 2169 3072 
Q 1681 3072 1420 2755 
Q 1159 2438 1159 1844 
L 1159 0 
L 581 0 
L 581 3500 
L 1159 3500 
L 1159 2956 
Q 1341 3275 1631 3429 
Q 1922 3584 2338 3584 
Q 2397 3584 2469 3576 
Q 2541 3569 2628 3553 
L 2631 2963 
z
" transform="scale(0.015625)"/>
      <path id="DejaVuSans-67" d="M 2906 1791 
Q 2906 2416 2648 2759 
Q 2391 3103 1925 3103 
Q 1463 3103 1205 2759 
Q 947 2416 947 1791 
Q 947 1169 1205 825 
Q 1463 481 1925 481 
Q 2391 481 2648 825 
Q 2906 1169 2906 1791 
z
M 3481 434 
Q 3481 -459 3084 -895 
Q 2688 -1331 1869 -1331 
Q 1566 -1331 1297 -1286 
Q 1028 -1241 775 -1147 
L 775 -588 
Q 1028 -725 1275 -790 
Q 1522 -856 1778 -856 
Q 2344 -856 2625 -561 
Q 2906 -266 2906 331 
L 2906 616 
Q 2728 306 2450 153 
Q 2172 0 1784 0 
Q 1141 0 747 490 
Q 353 981 353 1791 
Q 353 2603 747 3093 
Q 1141 3584 1784 3584 
Q 2172 3584 2450 3431 
Q 2728 3278 2906 2969 
L 2906 3500 
L 3481 3500 
L 3481 434 
z
" transform="scale(0.015625)"/>
     </defs>
     <use xlink:href="#DejaVuSans-50"/>
     <use xlink:href="#DejaVuSans-6f" x="56.677734"/>
     <use xlink:href="#DejaVuSans-74" x="117.859375"/>
     <use xlink:href="#DejaVuSans-65" x="157.068359"/>
     <use xlink:href="#DejaVuSans-6e" x="218.591797"/>
     <use xlink:href="#DejaVuSans-73" x="281.970703"/>
     <use xlink:href="#DejaVuSans-69" x="334.070312"/>
     <use xlink:href="#DejaVuSans-65" x="361.853516"/>
     <use xlink:href="#DejaVuSans-6c" x="423.376953"/>
     <use xlink:href="#DejaVuSans-6c" x="451.160156"/>
     <use xlink:href="#DejaVuSans-20" x="478.943359"/>
     <use xlink:href="#DejaVuSans-65" x="510.730469"/>
     <use xlink:href="#DejaVuSans-6e" x="572.253906"/>
     <use xlink:href="#DejaVuSans-65" x="635.632812"/>
     <use xlink:href="#DejaVuSans-72" x="697.15625"/>
     <use xlink:href="#DejaVuSans-67" x="736.519531"/>
     <use xlink:href="#DejaVuSans-69" x="799.996094"/>
    </g>
   </g>
  </g>
 </g>
 <defs>
  <clipPath id="p6d66b85903">
   <rect x="57.6" y="41.472" width="357.12" height="266.112"/>
  </clipPath>
 </defs>
</svg>
